<mxfile host="app.diagrams.net" modified="2021-02-24T08:14:54.508Z" agent="5.0 (Windows NT 10.0; Win64; x64) AppleWebKit/537.36 (KHTML, like Gecko) Chrome/88.0.4324.182 Safari/537.36 Edg/88.0.705.74" etag="GncsdBiUcwuPtSXP58B1" version="14.4.2" type="github">
  <diagram id="ddrdszEaurl3BNyXW3Yt" name="Page-1">
    <mxGraphModel dx="1422" dy="762" grid="1" gridSize="10" guides="1" tooltips="1" connect="1" arrows="1" fold="1" page="1" pageScale="1" pageWidth="827" pageHeight="1169" math="0" shadow="0">
      <root>
        <mxCell id="0" />
        <mxCell id="1" parent="0" />
        <mxCell id="ehoiAc8Ho4WDpHA1f1vf-11" value="" style="rounded=0;whiteSpace=wrap;html=1;" vertex="1" parent="1">
          <mxGeometry x="120" y="50" width="580" height="190" as="geometry" />
        </mxCell>
        <mxCell id="ehoiAc8Ho4WDpHA1f1vf-6" style="edgeStyle=orthogonalEdgeStyle;rounded=0;orthogonalLoop=1;jettySize=auto;html=1;entryX=0;entryY=0.5;entryDx=0;entryDy=0;" edge="1" parent="1" source="ehoiAc8Ho4WDpHA1f1vf-1" target="ehoiAc8Ho4WDpHA1f1vf-3">
          <mxGeometry relative="1" as="geometry" />
        </mxCell>
        <mxCell id="ehoiAc8Ho4WDpHA1f1vf-1" value="Nodes" style="rounded=0;whiteSpace=wrap;html=1;" vertex="1" parent="1">
          <mxGeometry x="99" y="110" width="70" height="20" as="geometry" />
        </mxCell>
        <mxCell id="ehoiAc8Ho4WDpHA1f1vf-7" style="edgeStyle=orthogonalEdgeStyle;rounded=0;orthogonalLoop=1;jettySize=auto;html=1;entryX=0;entryY=0.5;entryDx=0;entryDy=0;" edge="1" parent="1" source="ehoiAc8Ho4WDpHA1f1vf-2" target="ehoiAc8Ho4WDpHA1f1vf-3">
          <mxGeometry relative="1" as="geometry">
            <mxPoint x="239" y="170" as="targetPoint" />
          </mxGeometry>
        </mxCell>
        <mxCell id="ehoiAc8Ho4WDpHA1f1vf-2" value="Edges" style="rounded=0;whiteSpace=wrap;html=1;" vertex="1" parent="1">
          <mxGeometry x="99" y="150" width="70" height="20" as="geometry" />
        </mxCell>
        <mxCell id="ehoiAc8Ho4WDpHA1f1vf-8" style="edgeStyle=orthogonalEdgeStyle;rounded=0;orthogonalLoop=1;jettySize=auto;html=1;" edge="1" parent="1" source="ehoiAc8Ho4WDpHA1f1vf-3" target="ehoiAc8Ho4WDpHA1f1vf-5">
          <mxGeometry relative="1" as="geometry" />
        </mxCell>
        <mxCell id="ehoiAc8Ho4WDpHA1f1vf-3" value="cytoscpae()" style="swimlane;fontStyle=2;align=center;verticalAlign=top;childLayout=stackLayout;horizontal=1;startSize=26;horizontalStack=0;resizeParent=1;resizeLast=0;collapsible=1;marginBottom=0;rounded=0;shadow=0;strokeWidth=1;" vertex="1" parent="1">
          <mxGeometry x="279" y="100" width="160" height="90" as="geometry">
            <mxRectangle x="120" y="80" width="160" height="26" as="alternateBounds" />
          </mxGeometry>
        </mxCell>
        <mxCell id="ehoiAc8Ho4WDpHA1f1vf-4" value="" style="line;html=1;strokeWidth=1;align=left;verticalAlign=middle;spacingTop=-1;spacingLeft=3;spacingRight=3;rotatable=0;labelPosition=right;points=[];portConstraint=eastwest;" vertex="1" parent="ehoiAc8Ho4WDpHA1f1vf-3">
          <mxGeometry y="26" width="160" height="8" as="geometry" />
        </mxCell>
        <mxCell id="ehoiAc8Ho4WDpHA1f1vf-10" style="edgeStyle=orthogonalEdgeStyle;rounded=0;orthogonalLoop=1;jettySize=auto;html=1;" edge="1" parent="1" source="ehoiAc8Ho4WDpHA1f1vf-5" target="ehoiAc8Ho4WDpHA1f1vf-9">
          <mxGeometry relative="1" as="geometry" />
        </mxCell>
        <mxCell id="ehoiAc8Ho4WDpHA1f1vf-5" value="Stylesheet" style="rounded=0;whiteSpace=wrap;html=1;" vertex="1" parent="1">
          <mxGeometry x="479" y="135" width="70" height="20" as="geometry" />
        </mxCell>
        <mxCell id="ehoiAc8Ho4WDpHA1f1vf-9" value="Graph" style="rounded=0;whiteSpace=wrap;html=1;" vertex="1" parent="1">
          <mxGeometry x="659" y="135" width="70" height="20" as="geometry" />
        </mxCell>
      </root>
    </mxGraphModel>
  </diagram>
</mxfile>
